<svg width="129" height="88" viewBox="0 0 129 88" fill="none" xmlns="http://www.w3.org/2000/svg">
<g filter="url(#filter0_d_196_36)">
<rect x="9" y="4" width="111" height="73" rx="12" fill="url(#paint0_radial_196_36)"/>
</g>
<g filter="url(#filter1_d_196_36)">
<path fill-rule="evenodd" clip-rule="evenodd" d="M73 19H80.5C81.3284 19 82 19.6716 82 20.5V23.5556V26.6111C82 27.4395 81.3284 28.1111 80.5 28.1111H70C69.1716 28.1111 68.5 28.7827 68.5 29.6111V50.8889V53.9444C68.5 54.7729 67.8284 55.4444 67 55.4444H65.5C64.6716 55.4444 64 56.116 64 56.9444V58.5C64 59.3284 63.3284 60 62.5 60H52C51.1716 60 50.5 59.3284 50.5 58.5V56.9444C50.5 56.116 49.8284 55.4444 49 55.4444H47.5C46.6716 55.4444 46 54.7729 46 53.9444V52.3889C46 51.5605 46.6716 50.8889 47.5 50.8889H49C49.8284 50.8889 50.5 50.2173 50.5 49.3889V47.8333C50.5 47.0049 51.1716 46.3333 52 46.3333H62.5C63.3284 46.3333 64 45.6618 64 44.8333V28.1111V20.5C64 19.6716 64.6716 19 65.5 19H73Z" fill="white"/>
</g>
<defs>
<filter id="filter0_d_196_36" x="5" y="4" width="119" height="81" filterUnits="userSpaceOnUse" color-interpolation-filters="sRGB">
<feFlood flood-opacity="0" result="BackgroundImageFix"/>
<feColorMatrix in="SourceAlpha" type="matrix" values="0 0 0 0 0 0 0 0 0 0 0 0 0 0 0 0 0 0 127 0" result="hardAlpha"/>
<feOffset dy="4"/>
<feGaussianBlur stdDeviation="2"/>
<feComposite in2="hardAlpha" operator="out"/>
<feColorMatrix type="matrix" values="0 0 0 0 0 0 0 0 0 0 0 0 0 0 0 0 0 0 0.25 0"/>
<feBlend mode="normal" in2="BackgroundImageFix" result="effect1_dropShadow_196_36"/>
<feBlend mode="normal" in="SourceGraphic" in2="effect1_dropShadow_196_36" result="shape"/>
</filter>
<filter id="filter1_d_196_36" x="42" y="19" width="44" height="49" filterUnits="userSpaceOnUse" color-interpolation-filters="sRGB">
<feFlood flood-opacity="0" result="BackgroundImageFix"/>
<feColorMatrix in="SourceAlpha" type="matrix" values="0 0 0 0 0 0 0 0 0 0 0 0 0 0 0 0 0 0 127 0" result="hardAlpha"/>
<feOffset dy="4"/>
<feGaussianBlur stdDeviation="2"/>
<feComposite in2="hardAlpha" operator="out"/>
<feColorMatrix type="matrix" values="0 0 0 0 0 0 0 0 0 0 0 0 0 0 0 0 0 0 0.25 0"/>
<feBlend mode="normal" in2="BackgroundImageFix" result="effect1_dropShadow_196_36"/>
<feBlend mode="normal" in="SourceGraphic" in2="effect1_dropShadow_196_36" result="shape"/>
</filter>
<radialGradient id="paint0_radial_196_36" cx="0" cy="0" r="1" gradientUnits="userSpaceOnUse" gradientTransform="translate(12.5 8) rotate(30.3342) scale(132.662 201.719)">
<stop stop-color="#EA7B36"/>
<stop offset="0.442308" stop-color="#DA0F90"/>
<stop offset="1" stop-color="#7400DA"/>
</radialGradient>
</defs>
</svg>
