<svg width="129" height="119" viewBox="0 0 129 119" fill="none" xmlns="http://www.w3.org/2000/svg">
<mask id="mask0_607_5" style="mask-type:alpha" maskUnits="userSpaceOnUse" x="33" y="6" width="74" height="96">
<path d="M33 15C33 10.0294 37.0294 6 42 6H70H79.2721C81.659 6 83.9482 6.94821 85.636 8.63604L91 14L104.364 27.364C106.052 29.0518 107 31.341 107 33.7279V54V93C107 97.9706 102.971 102 98 102H42C37.0294 102 33 97.9706 33 93V15Z" fill="#CCCCCC"/>
</mask>
<g mask="url(#mask0_607_5)">
<path d="M33 6H70H83L91 14L107 30V54V102H33V6Z" fill="url(#paint0_radial_607_5)"/>
<path d="M33 6H70H83L91 14L107 30V54V102H33V6Z" fill="url(#paint1_radial_607_5)" fill-opacity="0.5"/>
<g filter="url(#filter0_d_607_5)">
<path d="M80.5465 6.02366L55 2.5L74.5 0L118 4.5L108 41.5L106.923 32.5234C106.682 30.513 104.976 29 102.951 29H90C86.6863 29 84 26.3137 84 23V9.98615C84 7.9882 82.5258 6.29666 80.5465 6.02366Z" fill="url(#paint2_linear_607_5)"/>
</g>
</g>
<rect x="23.5" y="33.5" width="45" height="45" rx="6.5" fill="url(#paint3_linear_607_5)" stroke="url(#paint4_linear_607_5)" stroke-width="3"/>
<g filter="url(#filter1_d_607_5)">
<rect x="33" y="50.1053" width="4.26316" height="13.5" rx="2.13158" fill="white"/>
<rect x="40.1053" y="43" width="4.26316" height="27" rx="2.13158" fill="white"/>
<rect x="47.2105" y="47.9737" width="4.26316" height="17.0526" rx="2.13158" fill="white"/>
<rect x="54.3158" y="51.5263" width="4.26316" height="10.6579" rx="2.13158" fill="white"/>
</g>
<g filter="url(#filter2_d_607_5)">
<path d="M86.9091 90.6889L86.9091 86.7706L95.0142 83.4467L95.0142 83.2933L86.9091 79.9695L86.9091 76.0511L100 76.0511L100 79.1321L91.9588 79.1321L91.9588 79.2408L99.9169 82.3857L99.9169 84.3544L91.9141 87.4993L91.9141 87.608L100 87.608L100 90.6889L86.9091 90.6889ZM100 74.0776L86.9091 74.0776L86.9091 68.6699C86.9091 67.6898 87.1009 66.8439 87.4844 66.1323C87.8636 65.4164 88.3942 64.8645 89.076 64.4767C89.7535 64.089 90.5419 63.8951 91.441 63.8951C92.3445 63.8951 93.1349 64.0932 93.8125 64.4895C94.4858 64.8816 95.0078 65.4419 95.3785 66.1706C95.7493 66.8993 95.9347 67.7644 95.9347 68.7658L95.9347 72.1024L93.4418 72.1024L93.4418 69.3539C93.4418 68.8766 93.3587 68.4782 93.1925 68.1586C93.0263 67.8347 92.794 67.5897 92.4957 67.4235C92.1932 67.2573 91.8416 67.1742 91.441 67.1742C91.0362 67.1742 90.6868 67.2573 90.3928 67.4235C90.0945 67.5897 89.8643 67.8347 89.7024 68.1586C89.5405 68.4824 89.4595 68.8809 89.4595 69.3539L89.4595 70.9135L100 70.9135L100 74.0776ZM100.179 57.3816C100.179 58.3787 100.009 59.263 99.6676 60.0343C99.3224 60.8013 98.8473 61.4064 98.2422 61.8496C97.6371 62.2928 96.9403 62.5186 96.152 62.5272L96.152 59.3439C96.4375 59.3311 96.691 59.2395 96.9126 59.0691C97.13 58.8986 97.3004 58.6664 97.424 58.3723C97.5476 58.0783 97.6094 57.7438 97.6094 57.3688C97.6094 56.9938 97.5433 56.6635 97.4112 56.378C97.2749 56.0882 97.0895 55.8624 96.8551 55.7005C96.6165 55.5385 96.3437 55.4597 96.0369 55.464C95.7301 55.4597 95.4574 55.5471 95.2187 55.726C94.9801 55.905 94.7947 56.1586 94.6626 56.4867C94.5305 56.8105 94.4645 57.1941 94.4645 57.6373L94.4645 58.9093L92.2145 58.9093L92.2145 57.6373C92.2145 57.2495 92.1506 56.9086 92.0227 56.6145C91.8949 56.3162 91.7159 56.084 91.4858 55.9178C91.2514 55.7516 90.983 55.6706 90.6804 55.6749C90.3864 55.6706 90.1285 55.7409 89.907 55.8858C89.6811 56.0265 89.5064 56.2246 89.3828 56.4803C89.2592 56.7317 89.1974 57.0236 89.1974 57.356C89.1974 57.7054 89.2592 58.0229 89.3828 58.3084C89.5064 58.5897 89.6811 58.8134 89.907 58.9796C90.1328 59.1458 90.3949 59.2331 90.6932 59.2417L90.6932 62.2651C89.9134 62.2566 89.2273 62.0392 88.6349 61.6131C88.0384 61.187 87.5717 60.6074 87.2351 59.8745C86.8984 59.1373 86.7301 58.2978 86.7301 57.356C86.7301 56.4185 86.8942 55.5939 87.2223 54.8823C87.5504 54.1706 87.9979 53.6167 88.5646 53.2203C89.1271 52.824 89.7642 52.6259 90.4759 52.6259C91.2131 52.6216 91.8203 52.8624 92.2976 53.3482C92.7749 53.8297 93.0689 54.4498 93.1797 55.2083L93.282 55.2083C93.4013 54.1941 93.7294 53.4292 94.2663 52.9135C94.8033 52.3936 95.4744 52.1358 96.2798 52.1401C97.0384 52.1401 97.7116 52.3638 98.2997 52.8113C98.8835 53.2544 99.3437 53.8723 99.6804 54.6649C100.013 55.4533 100.179 56.3588 100.179 57.3816Z" fill="white"/>
</g>
<defs>
<filter id="filter0_d_607_5" x="49" y="-4" width="75" height="53.5" filterUnits="userSpaceOnUse" color-interpolation-filters="sRGB">
<feFlood flood-opacity="0" result="BackgroundImageFix"/>
<feColorMatrix in="SourceAlpha" type="matrix" values="0 0 0 0 0 0 0 0 0 0 0 0 0 0 0 0 0 0 127 0" result="hardAlpha"/>
<feOffset dy="2"/>
<feGaussianBlur stdDeviation="3"/>
<feComposite in2="hardAlpha" operator="out"/>
<feColorMatrix type="matrix" values="0 0 0 0 0 0 0 0 0 0 0 0 0 0 0 0 0 0 0.25 0"/>
<feBlend mode="normal" in2="BackgroundImageFix" result="effect1_dropShadow_607_5"/>
<feBlend mode="normal" in="SourceGraphic" in2="effect1_dropShadow_607_5" result="shape"/>
</filter>
<filter id="filter1_d_607_5" x="28" y="40" width="35.579" height="37" filterUnits="userSpaceOnUse" color-interpolation-filters="sRGB">
<feFlood flood-opacity="0" result="BackgroundImageFix"/>
<feColorMatrix in="SourceAlpha" type="matrix" values="0 0 0 0 0 0 0 0 0 0 0 0 0 0 0 0 0 0 127 0" result="hardAlpha"/>
<feOffset dy="2"/>
<feGaussianBlur stdDeviation="2.5"/>
<feComposite in2="hardAlpha" operator="out"/>
<feColorMatrix type="matrix" values="0 0 0 0 0 0 0 0 0 0 0 0 0 0 0 0 0 0 0.12 0"/>
<feBlend mode="normal" in2="BackgroundImageFix" result="effect1_dropShadow_607_5"/>
<feBlend mode="normal" in="SourceGraphic" in2="effect1_dropShadow_607_5" result="shape"/>
</filter>
<filter id="filter2_d_607_5" x="82.7301" y="49.1337" width="21.4489" height="46.5552" filterUnits="userSpaceOnUse" color-interpolation-filters="sRGB">
<feFlood flood-opacity="0" result="BackgroundImageFix"/>
<feColorMatrix in="SourceAlpha" type="matrix" values="0 0 0 0 0 0 0 0 0 0 0 0 0 0 0 0 0 0 127 0" result="hardAlpha"/>
<feOffset dy="1"/>
<feGaussianBlur stdDeviation="2"/>
<feComposite in2="hardAlpha" operator="out"/>
<feColorMatrix type="matrix" values="0 0 0 0 0 0 0 0 0 0 0 0 0 0 0 0 0 0 0.15 0"/>
<feBlend mode="normal" in2="BackgroundImageFix" result="effect1_dropShadow_607_5"/>
<feBlend mode="normal" in="SourceGraphic" in2="effect1_dropShadow_607_5" result="shape"/>
</filter>
<radialGradient id="paint0_radial_607_5" cx="0" cy="0" r="1" gradientUnits="userSpaceOnUse" gradientTransform="translate(90.5 20) rotate(114.669) scale(94.6375 72.9497)">
<stop stop-color="#797979"/>
<stop offset="0.247281" stop-color="#999999"/>
<stop offset="1" stop-color="#B1B1B1"/>
</radialGradient>
<radialGradient id="paint1_radial_607_5" cx="0" cy="0" r="1" gradientUnits="userSpaceOnUse" gradientTransform="translate(46.5 61.5) rotate(30.0271) scale(62.9484 48.5227)">
<stop/>
<stop offset="0.471154" stop-opacity="0.5"/>
<stop offset="1" stop-opacity="0"/>
</radialGradient>
<linearGradient id="paint2_linear_607_5" x1="95" y1="16.5" x2="86" y2="26.5" gradientUnits="userSpaceOnUse">
<stop stop-color="#E6E6E6"/>
<stop offset="1" stop-color="#B9B9B9"/>
</linearGradient>
<linearGradient id="paint3_linear_607_5" x1="46" y1="32" x2="46" y2="80" gradientUnits="userSpaceOnUse">
<stop stop-color="#B9B9B9"/>
<stop offset="1" stop-color="#6D6D6D"/>
</linearGradient>
<linearGradient id="paint4_linear_607_5" x1="23.2973" y1="34.6301" x2="77.8471" y2="56.6942" gradientUnits="userSpaceOnUse">
<stop stop-color="#EA7B36"/>
<stop offset="0.5" stop-color="#DA0F90"/>
<stop offset="1" stop-color="#7400DA"/>
</linearGradient>
</defs>
</svg>
