<svg width="48" height="49" viewBox="0 0 48 49" fill="none" xmlns="http://www.w3.org/2000/svg">
<mask id="mask0_713_12" style="mask-type:alpha" maskUnits="userSpaceOnUse" x="8" y="8" width="32" height="32">
<path d="M8 15C8 11.134 11.134 8 15 8H29.5C30.0523 8 30.5 8.44772 30.5 9V9.18848C30.5 9.63667 30.1367 10 29.6885 10C29.008 10 28.6297 10.7871 29.0548 11.3185L35.6877 19.6096C36.4544 20.568 38 20.0258 38 18.7984V18.5C38 17.9477 38.4477 17.5 39 17.5C39.5523 17.5 40 17.9477 40 18.5V33C40 36.866 36.866 40 33 40H15C11.134 40 8 36.866 8 33V15Z" fill="#D9D9D9"/>
</mask>
<g mask="url(#mask0_713_12)">
<rect x="9" y="9" width="30" height="30" rx="6" stroke="#606060" stroke-width="2"/>
<path fill-rule="evenodd" clip-rule="evenodd" d="M27.726 15.0137H30.8712C31.3131 15.0137 31.6712 15.3719 31.6712 15.8137V17.0107V18.2076C31.6712 18.6494 31.3131 19.0076 30.8712 19.0076H26.5534C26.1116 19.0076 25.7534 19.3658 25.7534 19.8076V28.9924V30.1893C25.7534 30.6312 25.3953 30.9893 24.9534 30.9893H24.5808C24.139 30.9893 23.7808 31.3475 23.7808 31.7893V32.1863C23.7808 32.6281 23.4227 32.9863 22.9808 32.9863H18.663C18.2212 32.9863 17.863 32.6281 17.863 32.1863V31.7893C17.863 31.3475 17.5048 30.9893 17.063 30.9893H16.6904C16.2486 30.9893 15.8904 30.6312 15.8904 30.1893V29.7924C15.8904 29.3506 16.2486 28.9924 16.6904 28.9924H17.063C17.5048 28.9924 17.863 28.6342 17.863 28.1924V27.7954C17.863 27.3536 18.2212 26.9954 18.663 26.9954H22.9808C23.4226 26.9954 23.7808 26.6373 23.7808 26.1954V19.0076V15.8137C23.7808 15.3719 24.139 15.0137 24.5808 15.0137H27.726Z" fill="#606060"/>
</g>
<path d="M39 4.33333V13.6667M34.3333 9H43.6667" stroke="#606060" stroke-width="2" stroke-linecap="round" stroke-linejoin="round"/>
</svg>
