<svg width="32" height="32" viewBox="0 0 32 32" fill="none" xmlns="http://www.w3.org/2000/svg">
<g clip-path="url(#clip0_707_14)">
<rect x="0.5" y="0.5" width="31" height="31" rx="6.5" fill="url(#paint0_linear_707_14)" stroke="url(#paint1_linear_707_14)"/>
<g filter="url(#filter0_dd_707_14)">
<path fill-rule="evenodd" clip-rule="evenodd" d="M19.8 7H23C23.4418 7 23.8 7.35817 23.8 7.8V9V10.2C23.8 10.6418 23.4418 11 23 11H18.6C18.1582 11 17.8 11.3582 17.8 11.8V21V22.2C17.8 22.6418 17.4418 23 17 23H16.6C16.1582 23 15.8 23.3582 15.8 23.8V24.2C15.8 24.6418 15.4418 25 15 25H10.6C10.1582 25 9.8 24.6418 9.8 24.2V23.8C9.8 23.3582 9.44183 23 9 23H8.6C8.15817 23 7.8 22.6418 7.8 22.2V21.8C7.8 21.3582 8.15817 21 8.6 21H9C9.44183 21 9.8 20.6418 9.8 20.2V19.8C9.8 19.3582 10.1582 19 10.6 19H15C15.4418 19 15.8 18.6418 15.8 18.2V11V7.8C15.8 7.35817 16.1582 7 16.6 7H19.8Z" fill="url(#paint2_radial_707_14)"/>
<path fill-rule="evenodd" clip-rule="evenodd" d="M19.8 7H23C23.4418 7 23.8 7.35817 23.8 7.8V9V10.2C23.8 10.6418 23.4418 11 23 11H18.6C18.1582 11 17.8 11.3582 17.8 11.8V21V22.2C17.8 22.6418 17.4418 23 17 23H16.6C16.1582 23 15.8 23.3582 15.8 23.8V24.2C15.8 24.6418 15.4418 25 15 25H10.6C10.1582 25 9.8 24.6418 9.8 24.2V23.8C9.8 23.3582 9.44183 23 9 23H8.6C8.15817 23 7.8 22.6418 7.8 22.2V21.8C7.8 21.3582 8.15817 21 8.6 21H9C9.44183 21 9.8 20.6418 9.8 20.2V19.8C9.8 19.3582 10.1582 19 10.6 19H15C15.4418 19 15.8 18.6418 15.8 18.2V11V7.8C15.8 7.35817 16.1582 7 16.6 7H19.8Z" fill="url(#paint3_radial_707_14)" fill-opacity="0.63"/>
</g>
<g filter="url(#filter1_dd_707_14)">
<path fill-rule="evenodd" clip-rule="evenodd" d="M19.8 6H23C23.4418 6 23.8 6.35817 23.8 6.8V8V9.2C23.8 9.64183 23.4418 10 23 10H18.6C18.1582 10 17.8 10.3582 17.8 10.8V20V21.2C17.8 21.6418 17.4418 22 17 22H16.6C16.1582 22 15.8 22.3582 15.8 22.8V23.2C15.8 23.6418 15.4418 24 15 24H10.6C10.1582 24 9.8 23.6418 9.8 23.2V22.8C9.8 22.3582 9.44183 22 9 22H8.6C8.15817 22 7.8 21.6418 7.8 21.2V20.8C7.8 20.3582 8.15817 20 8.6 20H9C9.44183 20 9.8 19.6418 9.8 19.2V18.8C9.8 18.3582 10.1582 18 10.6 18H15C15.4418 18 15.8 17.6418 15.8 17.2V10V6.8C15.8 6.35817 16.1582 6 16.6 6H19.8Z" fill="url(#paint4_radial_707_14)"/>
</g>
</g>
<defs>
<filter id="filter0_dd_707_14" x="0.799999" y="-3" width="30" height="35" filterUnits="userSpaceOnUse" color-interpolation-filters="sRGB">
<feFlood flood-opacity="0" result="BackgroundImageFix"/>
<feColorMatrix in="SourceAlpha" type="matrix" values="0 0 0 0 0 0 0 0 0 0 0 0 0 0 0 0 0 0 127 0" result="hardAlpha"/>
<feOffset dy="-3"/>
<feGaussianBlur stdDeviation="3.5"/>
<feComposite in2="hardAlpha" operator="out"/>
<feColorMatrix type="matrix" values="0 0 0 0 1 0 0 0 0 1 0 0 0 0 1 0 0 0 0.15 0"/>
<feBlend mode="normal" in2="BackgroundImageFix" result="effect1_dropShadow_707_14"/>
<feColorMatrix in="SourceAlpha" type="matrix" values="0 0 0 0 0 0 0 0 0 0 0 0 0 0 0 0 0 0 127 0" result="hardAlpha"/>
<feOffset dy="3"/>
<feGaussianBlur stdDeviation="2"/>
<feComposite in2="hardAlpha" operator="out"/>
<feColorMatrix type="matrix" values="0 0 0 0 0 0 0 0 0 0 0 0 0 0 0 0 0 0 0.25 0"/>
<feBlend mode="normal" in2="effect1_dropShadow_707_14" result="effect2_dropShadow_707_14"/>
<feBlend mode="normal" in="SourceGraphic" in2="effect2_dropShadow_707_14" result="shape"/>
</filter>
<filter id="filter1_dd_707_14" x="-2.2" y="-7" width="36" height="38" filterUnits="userSpaceOnUse" color-interpolation-filters="sRGB">
<feFlood flood-opacity="0" result="BackgroundImageFix"/>
<feColorMatrix in="SourceAlpha" type="matrix" values="0 0 0 0 0 0 0 0 0 0 0 0 0 0 0 0 0 0 127 0" result="hardAlpha"/>
<feOffset dy="-3"/>
<feGaussianBlur stdDeviation="5"/>
<feComposite in2="hardAlpha" operator="out"/>
<feColorMatrix type="matrix" values="0 0 0 0 1 0 0 0 0 1 0 0 0 0 1 0 0 0 0.15 0"/>
<feBlend mode="normal" in2="BackgroundImageFix" result="effect1_dropShadow_707_14"/>
<feColorMatrix in="SourceAlpha" type="matrix" values="0 0 0 0 0 0 0 0 0 0 0 0 0 0 0 0 0 0 127 0" result="hardAlpha"/>
<feOffset dy="3"/>
<feGaussianBlur stdDeviation="1"/>
<feComposite in2="hardAlpha" operator="out"/>
<feColorMatrix type="matrix" values="0 0 0 0 0 0 0 0 0 0 0 0 0 0 0 0 0 0 0.25 0"/>
<feBlend mode="normal" in2="effect1_dropShadow_707_14" result="effect2_dropShadow_707_14"/>
<feBlend mode="normal" in="SourceGraphic" in2="effect2_dropShadow_707_14" result="shape"/>
</filter>
<linearGradient id="paint0_linear_707_14" x1="16" y1="0" x2="16" y2="32" gradientUnits="userSpaceOnUse">
<stop stop-color="#2C2C2C"/>
<stop offset="1" stop-color="#030303"/>
</linearGradient>
<linearGradient id="paint1_linear_707_14" x1="82.6301" y1="-45.3699" x2="5.91781" y2="27.3973" gradientUnits="userSpaceOnUse">
<stop stop-color="white" stop-opacity="0.2"/>
<stop offset="1" stop-opacity="0.5"/>
</linearGradient>
<radialGradient id="paint2_radial_707_14" cx="0" cy="0" r="1" gradientTransform="matrix(3.77778 18 -16 3.27662 14.6889 7)" gradientUnits="userSpaceOnUse">
<stop stop-color="#EA7B36"/>
<stop offset="0.5" stop-color="#DA0F90"/>
<stop offset="1" stop-color="#7400DA"/>
</radialGradient>
<radialGradient id="paint3_radial_707_14" cx="0" cy="0" r="1" gradientUnits="userSpaceOnUse" gradientTransform="translate(15.8 16) rotate(89.1186) scale(13.0015 11.5569)">
<stop offset="0.382013"/>
<stop offset="1" stop-opacity="0"/>
</radialGradient>
<radialGradient id="paint4_radial_707_14" cx="0" cy="0" r="1" gradientTransform="matrix(3.77778 18 -16 3.27662 14.6889 6)" gradientUnits="userSpaceOnUse">
<stop stop-color="#EA7B36"/>
<stop offset="0.5" stop-color="#DA0F90"/>
<stop offset="1" stop-color="#7400DA"/>
</radialGradient>
<clipPath id="clip0_707_14">
<rect width="32" height="32" fill="white"/>
</clipPath>
</defs>
</svg>
