<svg width="32" height="32" viewBox="0 0 32 32" fill="none" xmlns="http://www.w3.org/2000/svg">
<g clip-path="url(#clip0_350_46)">
<rect width="32" height="32" rx="7" fill="url(#paint0_linear_350_46)"/>
<rect x="0.5" y="0.5" width="31" height="31" rx="6.5" fill="url(#paint1_linear_350_46)" stroke="url(#paint2_linear_350_46)"/>
<mask id="mask0_350_46" style="mask-type:alpha" maskUnits="userSpaceOnUse" x="1" y="1" width="30" height="30">
<rect x="1" y="1" width="30" height="30" rx="6" fill="white"/>
</mask>
<g mask="url(#mask0_350_46)">
<g filter="url(#filter0_dd_350_46)">
<path fill-rule="evenodd" clip-rule="evenodd" d="M19.725 7.01H22.87C23.3118 7.01 23.67 7.36817 23.67 7.81V9.00667V10.2033C23.67 10.6452 23.3118 11.0033 22.87 11.0033H18.5525C18.1107 11.0033 17.7525 11.3615 17.7525 11.8033V20.9867V22.1833C17.7525 22.6252 17.3943 22.9833 16.9525 22.9833H16.58C16.1382 22.9833 15.78 23.3415 15.78 23.7833V24.18C15.78 24.6218 15.4218 24.98 14.98 24.98H10.6625C10.2207 24.98 9.8625 24.6218 9.8625 24.18V23.7833C9.8625 23.3415 9.50433 22.9833 9.0625 22.9833H8.69C8.24817 22.9833 7.89 22.6252 7.89 22.1833V21.7867C7.89 21.3448 8.24817 20.9867 8.69 20.9867H9.0625C9.50433 20.9867 9.8625 20.6285 9.8625 20.1867V19.79C9.8625 19.3482 10.2207 18.99 10.6625 18.99H14.98C15.4218 18.99 15.78 18.6318 15.78 18.19V11.0033V7.81C15.78 7.36817 16.1382 7.01 16.58 7.01H19.725Z" fill="url(#paint3_radial_350_46)"/>
<path fill-rule="evenodd" clip-rule="evenodd" d="M19.725 7.01H22.87C23.3118 7.01 23.67 7.36817 23.67 7.81V9.00667V10.2033C23.67 10.6452 23.3118 11.0033 22.87 11.0033H18.5525C18.1107 11.0033 17.7525 11.3615 17.7525 11.8033V20.9867V22.1833C17.7525 22.6252 17.3943 22.9833 16.9525 22.9833H16.58C16.1382 22.9833 15.78 23.3415 15.78 23.7833V24.18C15.78 24.6218 15.4218 24.98 14.98 24.98H10.6625C10.2207 24.98 9.8625 24.6218 9.8625 24.18V23.7833C9.8625 23.3415 9.50433 22.9833 9.0625 22.9833H8.69C8.24817 22.9833 7.89 22.6252 7.89 22.1833V21.7867C7.89 21.3448 8.24817 20.9867 8.69 20.9867H9.0625C9.50433 20.9867 9.8625 20.6285 9.8625 20.1867V19.79C9.8625 19.3482 10.2207 18.99 10.6625 18.99H14.98C15.4218 18.99 15.78 18.6318 15.78 18.19V11.0033V7.81C15.78 7.36817 16.1382 7.01 16.58 7.01H19.725Z" fill="url(#paint4_radial_350_46)" fill-opacity="0.63"/>
</g>
<g filter="url(#filter1_dd_350_46)">
<path fill-rule="evenodd" clip-rule="evenodd" d="M19.725 6.01H22.87C23.3118 6.01 23.67 6.36817 23.67 6.81V8.00667V9.20333C23.67 9.64516 23.3118 10.0033 22.87 10.0033H18.5525C18.1107 10.0033 17.7525 10.3615 17.7525 10.8033V19.9867V21.1833C17.7525 21.6252 17.3943 21.9833 16.9525 21.9833H16.58C16.1382 21.9833 15.78 22.3415 15.78 22.7833V23.18C15.78 23.6218 15.4218 23.98 14.98 23.98H10.6625C10.2207 23.98 9.8625 23.6218 9.8625 23.18V22.7833C9.8625 22.3415 9.50433 21.9833 9.0625 21.9833H8.69C8.24817 21.9833 7.89 21.6252 7.89 21.1833V20.7867C7.89 20.3448 8.24817 19.9867 8.69 19.9867H9.0625C9.50433 19.9867 9.8625 19.6285 9.8625 19.1867V18.79C9.8625 18.3482 10.2207 17.99 10.6625 17.99H14.98C15.4218 17.99 15.78 17.6318 15.78 17.19V10.0033V6.81C15.78 6.36817 16.1382 6.01 16.58 6.01H19.725Z" fill="url(#paint5_radial_350_46)"/>
</g>
</g>
</g>
<defs>
<filter id="filter0_dd_350_46" x="-2.11" y="-5.99" width="35.78" height="37.97" filterUnits="userSpaceOnUse" color-interpolation-filters="sRGB">
<feFlood flood-opacity="0" result="BackgroundImageFix"/>
<feColorMatrix in="SourceAlpha" type="matrix" values="0 0 0 0 0 0 0 0 0 0 0 0 0 0 0 0 0 0 127 0" result="hardAlpha"/>
<feOffset dy="-3"/>
<feGaussianBlur stdDeviation="5"/>
<feComposite in2="hardAlpha" operator="out"/>
<feColorMatrix type="matrix" values="0 0 0 0 1 0 0 0 0 1 0 0 0 0 1 0 0 0 0.15 0"/>
<feBlend mode="normal" in2="BackgroundImageFix" result="effect1_dropShadow_350_46"/>
<feColorMatrix in="SourceAlpha" type="matrix" values="0 0 0 0 0 0 0 0 0 0 0 0 0 0 0 0 0 0 127 0" result="hardAlpha"/>
<feOffset dy="3"/>
<feGaussianBlur stdDeviation="2"/>
<feComposite in2="hardAlpha" operator="out"/>
<feColorMatrix type="matrix" values="0 0 0 0 0 0 0 0 0 0 0 0 0 0 0 0 0 0 0.25 0"/>
<feBlend mode="normal" in2="effect1_dropShadow_350_46" result="effect2_dropShadow_350_46"/>
<feBlend mode="normal" in="SourceGraphic" in2="effect2_dropShadow_350_46" result="shape"/>
</filter>
<filter id="filter1_dd_350_46" x="-12.11" y="-16.99" width="55.78" height="57.97" filterUnits="userSpaceOnUse" color-interpolation-filters="sRGB">
<feFlood flood-opacity="0" result="BackgroundImageFix"/>
<feColorMatrix in="SourceAlpha" type="matrix" values="0 0 0 0 0 0 0 0 0 0 0 0 0 0 0 0 0 0 127 0" result="hardAlpha"/>
<feOffset dy="-3"/>
<feGaussianBlur stdDeviation="10"/>
<feComposite in2="hardAlpha" operator="out"/>
<feColorMatrix type="matrix" values="0 0 0 0 1 0 0 0 0 1 0 0 0 0 1 0 0 0 0.15 0"/>
<feBlend mode="normal" in2="BackgroundImageFix" result="effect1_dropShadow_350_46"/>
<feColorMatrix in="SourceAlpha" type="matrix" values="0 0 0 0 0 0 0 0 0 0 0 0 0 0 0 0 0 0 127 0" result="hardAlpha"/>
<feOffset dy="3"/>
<feGaussianBlur stdDeviation="1"/>
<feComposite in2="hardAlpha" operator="out"/>
<feColorMatrix type="matrix" values="0 0 0 0 0 0 0 0 0 0 0 0 0 0 0 0 0 0 0.25 0"/>
<feBlend mode="normal" in2="effect1_dropShadow_350_46" result="effect2_dropShadow_350_46"/>
<feBlend mode="normal" in="SourceGraphic" in2="effect2_dropShadow_350_46" result="shape"/>
</filter>
<linearGradient id="paint0_linear_350_46" x1="16" y1="0" x2="16" y2="32" gradientUnits="userSpaceOnUse">
<stop stop-color="#2C2C2C"/>
<stop offset="1" stop-color="#030303"/>
</linearGradient>
<linearGradient id="paint1_linear_350_46" x1="16" y1="0" x2="16" y2="32" gradientUnits="userSpaceOnUse">
<stop stop-color="#2C2C2C"/>
<stop offset="1" stop-color="#030303"/>
</linearGradient>
<linearGradient id="paint2_linear_350_46" x1="49" y1="-63" x2="10" y2="29.5" gradientUnits="userSpaceOnUse">
<stop stop-color="white" stop-opacity="0.2"/>
<stop offset="1" stop-opacity="0.5"/>
</linearGradient>
<radialGradient id="paint3_radial_350_46" cx="0" cy="0" r="1" gradientTransform="matrix(3.72583 17.97 -15.78 3.27116 14.6842 7.01)" gradientUnits="userSpaceOnUse">
<stop stop-color="#EA7B36"/>
<stop offset="0.5" stop-color="#DA0F90"/>
<stop offset="1" stop-color="#7400DA"/>
</radialGradient>
<radialGradient id="paint4_radial_350_46" cx="0" cy="0" r="1" gradientTransform="matrix(0.197251 12.9783 -11.3967 0.177482 15.78 15.995)" gradientUnits="userSpaceOnUse">
<stop offset="0.382013"/>
<stop offset="1" stop-opacity="0"/>
</radialGradient>
<radialGradient id="paint5_radial_350_46" cx="0" cy="0" r="1" gradientTransform="matrix(3.72583 17.97 -15.78 3.27116 14.6842 6.01)" gradientUnits="userSpaceOnUse">
<stop stop-color="#EA7B36"/>
<stop offset="0.5" stop-color="#DA0F90"/>
<stop offset="1" stop-color="#7400DA"/>
</radialGradient>
<clipPath id="clip0_350_46">
<rect width="32" height="32" fill="white"/>
</clipPath>
</defs>
</svg>
