<svg version="1.1" xmlns="http://www.w3.org/2000/svg" xmlns:xlink="http://www.w3.org/1999/xlink" width="32.48355" height="26.71275" viewBox="0,0,32.48355,26.71275"><g transform="translate(-223.75421,-164.94846)"><g data-paper-data="{&quot;isPaintingLayer&quot;:true}" fill="#b9b9b9" fill-rule="nonzero" stroke-width="0.5" stroke-linecap="butt" stroke-linejoin="miter" stroke-miterlimit="10" stroke-dasharray="" stroke-dashoffset="0" style="mix-blend-mode: normal"><path d="M239.55733,174.54314c3.13629,0 5.88681,2.28902 5.88681,6.67244l0.07054,2.95642c0,4.54481 2.99735,5.12624 4.23156,5.12624c1.23421,0 4.11873,-0.82622 4.11873,-4.70514v-8.18203c0,-1.40745 2.12279,-1.40745 2.12279,0v8.18203c-0.07542,5.11313 -3.77311,6.81811 -6.24153,6.81811c-2.46842,0 -6.34733,-1.46019 -6.34733,-7.23921l-0.0716,-3.12759c0,-3.68022 -2.57316,-4.21177 -3.76997,-4.21177c-1.88515,0 -3.77031,1.56706 -3.77031,4.21177v9.31207c0,0.58428 -0.47392,1.05472 -1.05825,1.05472h-0.0046h-0.0046c-0.58428,0 -1.0582,-0.47044 -1.0582,-1.05472v-9.31207c0,-2.64471 -1.8852,-4.21177 -3.77035,-4.21177c-1.88515,0 -3.77103,0.99483 -3.76997,4.90282v8.62102c0,0.58075 -0.47392,1.05472 -1.05859,1.05472c-0.58428,0 -1.05825,-0.47044 -1.05825,-1.05472v-8.62102c0,-5.1422 2.83658,-7.01603 5.88681,-7.01603c1.84601,0 3.8271,0.91229 4.83209,2.30209c1.00503,-1.3898 2.9882,-2.47838 4.83422,-2.47838z" stroke="#b9b9b9"/><path d="M243.16818,171.72209c0,-3.70262 2.7914,-6.52363 6.36741,-6.52363c3.57606,0 6.36818,2.821 6.36818,6.52363c0,1.58685 -2.12071,1.58685 -2.12071,0c0,-2.11578 -1.55303,-4.40785 -4.24747,-4.40785c-2.69444,0 -4.2527,2.29207 -4.2527,4.40785c0,1.58685 -2.11437,1.58685 -2.11471,0z" stroke="#bbbbbb"/><path d="M249.7398,173.17753c-0.77156,0 -1.39642,-0.62482 -1.39642,-1.39638c0,-0.7716 0.62487,-1.39642 1.39642,-1.39642c0.77156,0 1.39642,0.62482 1.39642,1.39642c0,0.77156 -0.62487,1.39638 -1.39642,1.39638z" stroke="#b9b9b9"/></g></g></svg>