<svg width="96" height="96" viewBox="0 0 96 96" fill="none" xmlns="http://www.w3.org/2000/svg">
<path d="M14.9297 15.3908C11.3454 18.925 11.3454 24.6551 14.9297 28.1893L20.8051 33.9827C22.7109 35.8619 23.7839 38.4267 23.7839 41.1033V55.2315C23.7839 55.8601 23.0258 56.1773 22.5782 55.7358C19.7007 52.8986 15.0355 52.8986 12.1581 55.7358C9.28064 58.5731 9.28064 63.1732 12.1581 66.0105L28.2443 81.8721C31.1217 84.7093 35.7869 84.7093 38.6643 81.8721C41.5418 79.0348 41.5418 74.4347 38.6643 71.5975C35.2795 68.2599 33.3739 63.7047 33.3739 58.9511V53.6504C33.3739 50.9495 36.6305 49.5872 38.5537 51.4835L67.9413 80.4608C71.5256 83.995 77.3368 83.995 80.9211 80.4608C84.5053 76.9266 84.5053 71.1965 80.9211 67.6623L75.1391 61.961C73.2332 60.0818 72.1603 57.5191 72.1603 54.8426V40.7908C72.1603 40.1311 72.9557 39.8004 73.4255 40.2635C76.3021 43.1 80.9659 43.1 83.8425 40.2635C86.7191 37.4271 86.7192 32.8283 83.8426 29.9919L67.7534 14.1273C64.8768 11.2909 60.2129 11.2909 57.3363 14.1273C54.4597 16.9638 54.4597 21.5625 57.3363 24.399C60.685 27.7009 62.5702 32.2074 62.5702 36.9103V42.2923C62.5702 44.9935 59.3131 46.356 57.3897 44.4595L27.9094 15.3908C24.3252 11.8566 18.5139 11.8566 14.9297 15.3908Z" stroke="white" stroke-width="3"/>
</svg>
