<svg width="178" height="296" viewBox="0 0 178 296" fill="none" xmlns="http://www.w3.org/2000/svg">
<path fill-rule="evenodd" clip-rule="evenodd" d="M110.098 12.8838L156.74 0.312312C161.006 -0.837529 165.396 1.68865 166.546 5.95468L171.881 25.749L177.217 45.5432C178.367 49.8093 175.84 54.1997 171.574 55.3496L105.474 73.1659C101.208 74.3157 98.6817 78.7061 99.8315 82.9722L134.836 212.841L140.171 232.635C141.321 236.901 138.794 241.292 134.528 242.442L122.794 245.604C118.528 246.754 116.002 251.145 117.152 255.411L120.405 267.481C121.555 271.747 119.029 276.137 114.763 277.287L48.6622 295.103C44.3962 296.253 40.0058 293.727 38.8559 289.461L35.6027 277.391C34.4528 273.125 30.0624 270.599 25.7963 271.749L14.062 274.911C9.79595 276.061 5.40552 273.535 4.25568 269.269L1.00241 257.199C-0.147431 252.933 2.37874 248.543 6.64478 247.393L18.3791 244.23C22.6452 243.08 25.1713 238.69 24.0215 234.424L20.7682 222.354C19.6184 218.088 22.1446 213.697 26.4106 212.547L92.511 194.731C96.7771 193.581 99.3032 189.191 98.1534 184.925L70.5665 82.5746L57.8141 35.2617C56.6643 30.9957 59.1904 26.6052 63.4565 25.4554L110.098 12.8838Z" fill="white"/>
</svg>
