<svg width="16" height="16" viewBox="0 0 16 16" fill="none" xmlns="http://www.w3.org/2000/svg">
<path d="M12.5996 1C13.0967 1 13.5 1.40334 13.5 1.90039V3.98926C13.4998 4.48614 13.0965 4.88867 12.5996 4.88867H9.375V12.6553C9.375 13.1523 8.97167 13.5557 8.47461 13.5557H8V14.0996C8 14.5967 7.59667 15 7.09961 15H3.77539C3.27833 15 2.875 14.5967 2.875 14.0996V13.5557H2.40039C1.90333 13.5557 1.5 13.1523 1.5 12.6553V12.0107C1.5002 11.5139 1.90346 11.1113 2.40039 11.1113H2.875V10.5664C2.87514 10.0695 3.27842 9.66699 3.77539 9.66699H7V1.90039C7 1.40334 7.40333 1 7.90039 1H12.5996Z" stroke="#EA7B36"/>
</svg>
