<svg width="129" height="119" viewBox="0 0 129 119" fill="none" xmlns="http://www.w3.org/2000/svg">
<mask id="mask0_357_42" style="mask-type:alpha" maskUnits="userSpaceOnUse" x="33" y="6" width="74" height="96">
<path d="M33 15C33 10.0294 37.0294 6 42 6H70H79.2721C81.659 6 83.9482 6.94821 85.636 8.63604L91 14L104.364 27.364C106.052 29.0518 107 31.341 107 33.7279V54V93C107 97.9706 102.971 102 98 102H42C37.0294 102 33 97.9706 33 93V15Z" fill="#CCCCCC"/>
</mask>
<g mask="url(#mask0_357_42)">
<path d="M33 6H70H83L91 14L107 30V54V102H33V6Z" fill="url(#paint0_radial_357_42)"/>
<path d="M33 6H70H83L91 14L107 30V54V102H33V6Z" fill="url(#paint1_radial_357_42)" fill-opacity="0.5"/>
<g filter="url(#filter0_d_357_42)">
<path d="M80.5465 6.02366L55 2.5L74.5 0L118 4.5L108 41.5L106.923 32.5234C106.682 30.513 104.976 29 102.951 29H90C86.6863 29 84 26.3137 84 23V9.98615C84 7.9882 82.5258 6.29666 80.5465 6.02366Z" fill="url(#paint2_linear_357_42)"/>
</g>
</g>
<rect x="23.5" y="33.5" width="45" height="45" rx="6.5" fill="url(#paint3_linear_357_42)" stroke="url(#paint4_linear_357_42)" stroke-width="3"/>
<g filter="url(#filter1_d_357_42)">
<rect x="33" y="50.1053" width="4.26316" height="13.5" rx="2.13158" fill="white"/>
<rect x="40.1053" y="43" width="4.26316" height="27" rx="2.13158" fill="white"/>
<rect x="47.2105" y="47.9737" width="4.26316" height="17.0526" rx="2.13158" fill="white"/>
<rect x="54.3158" y="51.5263" width="4.26316" height="10.6579" rx="2.13158" fill="white"/>
</g>
<g filter="url(#filter2_d_357_42)">
<path d="M100 89.2467L86.9091 93.0564L86.9091 89.5599L95.4872 87.5848L95.4872 87.4761L86.9091 85.2197L86.9091 82.3689L95.5064 80.1125L95.5064 80.0038L86.9091 78.0223L86.9091 74.5322L100 78.3355L100 81.3845L92.0611 83.7432L92.0611 83.8454L100 86.2041L100 89.2467ZM100 71.8172L100 75.2178L86.9091 70.8009L86.9091 66.5885L100 62.1716L100 65.5722L90.2074 68.6467L90.2074 68.749L100 71.8172ZM94.848 72.271L94.848 65.1631L97.2514 65.1631L97.2514 72.271L94.848 72.271ZM86.9091 59.5477L96.4972 56.6201L96.4972 56.5115L86.9091 53.5839L86.9091 50.0427L100 54.4596L100 58.672L86.9091 63.0889L86.9091 59.5477Z" fill="white"/>
</g>
<defs>
<filter id="filter0_d_357_42" x="49" y="-4" width="75" height="53.5" filterUnits="userSpaceOnUse" color-interpolation-filters="sRGB">
<feFlood flood-opacity="0" result="BackgroundImageFix"/>
<feColorMatrix in="SourceAlpha" type="matrix" values="0 0 0 0 0 0 0 0 0 0 0 0 0 0 0 0 0 0 127 0" result="hardAlpha"/>
<feOffset dy="2"/>
<feGaussianBlur stdDeviation="3"/>
<feComposite in2="hardAlpha" operator="out"/>
<feColorMatrix type="matrix" values="0 0 0 0 0 0 0 0 0 0 0 0 0 0 0 0 0 0 0.25 0"/>
<feBlend mode="normal" in2="BackgroundImageFix" result="effect1_dropShadow_357_42"/>
<feBlend mode="normal" in="SourceGraphic" in2="effect1_dropShadow_357_42" result="shape"/>
</filter>
<filter id="filter1_d_357_42" x="28" y="40" width="35.579" height="37" filterUnits="userSpaceOnUse" color-interpolation-filters="sRGB">
<feFlood flood-opacity="0" result="BackgroundImageFix"/>
<feColorMatrix in="SourceAlpha" type="matrix" values="0 0 0 0 0 0 0 0 0 0 0 0 0 0 0 0 0 0 127 0" result="hardAlpha"/>
<feOffset dy="2"/>
<feGaussianBlur stdDeviation="2.5"/>
<feComposite in2="hardAlpha" operator="out"/>
<feColorMatrix type="matrix" values="0 0 0 0 0 0 0 0 0 0 0 0 0 0 0 0 0 0 0.12 0"/>
<feBlend mode="normal" in2="BackgroundImageFix" result="effect1_dropShadow_357_42"/>
<feBlend mode="normal" in="SourceGraphic" in2="effect1_dropShadow_357_42" result="shape"/>
</filter>
<filter id="filter2_d_357_42" x="82.9091" y="47.0427" width="21.0909" height="51.0137" filterUnits="userSpaceOnUse" color-interpolation-filters="sRGB">
<feFlood flood-opacity="0" result="BackgroundImageFix"/>
<feColorMatrix in="SourceAlpha" type="matrix" values="0 0 0 0 0 0 0 0 0 0 0 0 0 0 0 0 0 0 127 0" result="hardAlpha"/>
<feOffset dy="1"/>
<feGaussianBlur stdDeviation="2"/>
<feComposite in2="hardAlpha" operator="out"/>
<feColorMatrix type="matrix" values="0 0 0 0 0 0 0 0 0 0 0 0 0 0 0 0 0 0 0.15 0"/>
<feBlend mode="normal" in2="BackgroundImageFix" result="effect1_dropShadow_357_42"/>
<feBlend mode="normal" in="SourceGraphic" in2="effect1_dropShadow_357_42" result="shape"/>
</filter>
<radialGradient id="paint0_radial_357_42" cx="0" cy="0" r="1" gradientUnits="userSpaceOnUse" gradientTransform="translate(90.5 20) rotate(114.669) scale(94.6375 72.9497)">
<stop stop-color="#797979"/>
<stop offset="0.247281" stop-color="#999999"/>
<stop offset="1" stop-color="#B1B1B1"/>
</radialGradient>
<radialGradient id="paint1_radial_357_42" cx="0" cy="0" r="1" gradientUnits="userSpaceOnUse" gradientTransform="translate(46.5 61.5) rotate(30.0271) scale(62.9484 48.5227)">
<stop/>
<stop offset="0.471154" stop-opacity="0.5"/>
<stop offset="1" stop-opacity="0"/>
</radialGradient>
<linearGradient id="paint2_linear_357_42" x1="95" y1="16.5" x2="86" y2="26.5" gradientUnits="userSpaceOnUse">
<stop stop-color="#E6E6E6"/>
<stop offset="1" stop-color="#B9B9B9"/>
</linearGradient>
<linearGradient id="paint3_linear_357_42" x1="46" y1="32" x2="46" y2="80" gradientUnits="userSpaceOnUse">
<stop stop-color="#B9B9B9"/>
<stop offset="1" stop-color="#6D6D6D"/>
</linearGradient>
<linearGradient id="paint4_linear_357_42" x1="23.2973" y1="34.6301" x2="77.8471" y2="56.6942" gradientUnits="userSpaceOnUse">
<stop stop-color="#EA7B36"/>
<stop offset="0.5" stop-color="#DA0F90"/>
<stop offset="1" stop-color="#7400DA"/>
</linearGradient>
</defs>
</svg>
